{"title":"Lucy and Violette Get Some Valentines Day Cock after School.mp4","uid":11971326,"size":379258007,"categoryP":"porn","categoryS":"movie_clips","magnet":"?xt=urn:btih:a3c1eaaa0d77b8efdce9594376fb9859932854c2&amp;dn=Lucy+and+Violette+Get+Some+Valentines+Day+Cock+after+School.mp4&amp;tr=udp%3A%2F%2Ftracker.openbittorrent.com%3A80&amp;tr=udp%3A%2F%2Fopen.demonii.com%3A1337&amp;tr=udp%3A%2F%2Ftracker.coppersurfer.tk%3A6969&amp;tr=udp%3A%2F%2Fexodus.desync.com%3A6969","seeders":0,"leechers":0,"uploader":"supertongo","files":1,"time":1432826507,"description":"Lucy and Violette Get Some Valentines Day Cock after School (Private production)\n\n\n:::Media info:::\n\nGeneral\nol.mp4\nFormat                         : MPEG-4\nFormat profile                 : Base Media\nCodec ID                       : isom\nFile size                      : 362 MiB\nDuration                       : 24mn 12s\nOverall bit rate mode          : Variable\nOverall bit rate               : 2 089 Kbps\nWriting application            : Lavf54.59.106\n\nVideo\nID                             : 1\nFormat                         : MPEG-4 Visual\nFormat profile                 : Simple@L1\nFormat settings, BVOP          : No\nFormat settings, QPel          : No\nFormat settings, GMC           : No warppoints\nFormat settings, Matrix        : Default (H.263)\nCodec ID                       : 20\nDuration                       : 24mn 12s\nBit rate mode                  : Constant\nBit rate                       : 2 001 Kbps\nWidth                          : 720 pixels\nHeight                         : 576 pixels\nDisplay aspect ratio           : 5:4\nFrame rate mode                : Constant\nFrame rate                     : 29.970 fps\nStandard                       : PAL\nColor space                    : YUV\nChroma subsampling             : 4:2:0\nBit depth                      : 8 bits\nScan type                      : Progressive\nCompression mode               : Lossy\nBits/(Pixel*Frame)             : 0.161\nStream size                    : 346 MiB (96%)\nWriting library                : Lavc54.86.100\n\nAudio\nID                             : 2\nFormat                         : AAC\nFormat/Info                    : Advanced Audio Codec\nFormat profile                 : LC\nCodec ID                       : 40\nDuration                       : 24mn 12s\nBit rate mode                  : Variable\nBit rate                       : 81.5 Kbps\nMaximum bit rate               : 96.0 Kbps\nChannel(s)                     : 2 channels\nChannel positions              : Front: L R\nSampling rate                  : 44.1 KHz\nCompression mode               : Lossy\nStream size                    : 14.1 MiB (4%)\n\n\n\nEnjoy! (and please seed as long as you can)","torrent":{"xt":"urn:btih:a3c1eaaa0d77b8efdce9594376fb9859932854c2","amp;dn":"Lucy+and+Violette+Get+Some+Valentines+Day+Cock+after+School.mp4","amp;tr":["udp%3A%2F%2Ftracker.openbittorrent.com%3A80","udp%3A%2F%2Fopen.demonii.com%3A1337","udp%3A%2F%2Ftracker.coppersurfer.tk%3A6969","udp%3A%2F%2Fexodus.desync.com%3A6969"],"infoHash":"a3c1eaaa0d77b8efdce9594376fb9859932854c2","infoHashBuffer":{"type":"Buffer","data":[163,193,234,170,13,119,184,239,220,233,89,67,118,251,152,89,147,40,84,194]},"announce":[],"urlList":[]}}